<svg xmlns="http://www.w3.org/2000/svg" viewBox="0 0 1080 60" width="1080" height="60">
  <!-- Repeating 8-point star row used as top/bottom flyer border. -->
  <g fill="currentColor" opacity="0.55">
    <!-- 22 stars across 1080px, cell width 50 -->
    <g transform="translate(0,30)"><polygon points="0,-14 4,-4 14,-2 6,4 8,14 0,8 -8,14 -6,4 -14,-2 -4,-4" /></g>
    <g transform="translate(50,30)"><polygon points="0,-14 4,-4 14,-2 6,4 8,14 0,8 -8,14 -6,4 -14,-2 -4,-4" /></g>
    <g transform="translate(100,30)"><polygon points="0,-14 4,-4 14,-2 6,4 8,14 0,8 -8,14 -6,4 -14,-2 -4,-4" /></g>
    <g transform="translate(150,30)"><polygon points="0,-14 4,-4 14,-2 6,4 8,14 0,8 -8,14 -6,4 -14,-2 -4,-4" /></g>
    <g transform="translate(200,30)"><polygon points="0,-14 4,-4 14,-2 6,4 8,14 0,8 -8,14 -6,4 -14,-2 -4,-4" /></g>
    <g transform="translate(250,30)"><polygon points="0,-14 4,-4 14,-2 6,4 8,14 0,8 -8,14 -6,4 -14,-2 -4,-4" /></g>
    <g transform="translate(300,30)"><polygon points="0,-14 4,-4 14,-2 6,4 8,14 0,8 -8,14 -6,4 -14,-2 -4,-4" /></g>
    <g transform="translate(350,30)"><polygon points="0,-14 4,-4 14,-2 6,4 8,14 0,8 -8,14 -6,4 -14,-2 -4,-4" /></g>
    <g transform="translate(400,30)"><polygon points="0,-14 4,-4 14,-2 6,4 8,14 0,8 -8,14 -6,4 -14,-2 -4,-4" /></g>
    <g transform="translate(450,30)"><polygon points="0,-14 4,-4 14,-2 6,4 8,14 0,8 -8,14 -6,4 -14,-2 -4,-4" /></g>
    <g transform="translate(500,30)"><polygon points="0,-14 4,-4 14,-2 6,4 8,14 0,8 -8,14 -6,4 -14,-2 -4,-4" /></g>
    <g transform="translate(550,30)"><polygon points="0,-14 4,-4 14,-2 6,4 8,14 0,8 -8,14 -6,4 -14,-2 -4,-4" /></g>
    <g transform="translate(600,30)"><polygon points="0,-14 4,-4 14,-2 6,4 8,14 0,8 -8,14 -6,4 -14,-2 -4,-4" /></g>
    <g transform="translate(650,30)"><polygon points="0,-14 4,-4 14,-2 6,4 8,14 0,8 -8,14 -6,4 -14,-2 -4,-4" /></g>
    <g transform="translate(700,30)"><polygon points="0,-14 4,-4 14,-2 6,4 8,14 0,8 -8,14 -6,4 -14,-2 -4,-4" /></g>
    <g transform="translate(750,30)"><polygon points="0,-14 4,-4 14,-2 6,4 8,14 0,8 -8,14 -6,4 -14,-2 -4,-4" /></g>
    <g transform="translate(800,30)"><polygon points="0,-14 4,-4 14,-2 6,4 8,14 0,8 -8,14 -6,4 -14,-2 -4,-4" /></g>
    <g transform="translate(850,30)"><polygon points="0,-14 4,-4 14,-2 6,4 8,14 0,8 -8,14 -6,4 -14,-2 -4,-4" /></g>
    <g transform="translate(900,30)"><polygon points="0,-14 4,-4 14,-2 6,4 8,14 0,8 -8,14 -6,4 -14,-2 -4,-4" /></g>
    <g transform="translate(950,30)"><polygon points="0,-14 4,-4 14,-2 6,4 8,14 0,8 -8,14 -6,4 -14,-2 -4,-4" /></g>
    <g transform="translate(1000,30)"><polygon points="0,-14 4,-4 14,-2 6,4 8,14 0,8 -8,14 -6,4 -14,-2 -4,-4" /></g>
    <g transform="translate(1050,30)"><polygon points="0,-14 4,-4 14,-2 6,4 8,14 0,8 -8,14 -6,4 -14,-2 -4,-4" /></g>
  </g>
</svg>
